<svg width="287" height="81" viewBox="0 0 287 81" fill="none" xmlns="http://www.w3.org/2000/svg">
<path d="M13.4448 53.6184C12.453 51.9534 13.1379 49.7959 14.9085 49.0079L30.5901 42.0282C31.538 41.6063 32.6307 41.6647 33.5282 42.1852L42.4889 47.3819C43.3816 47.8996 43.9737 48.8123 44.0827 49.8385L45.9123 67.0698C46.1163 68.9912 44.6013 70.6617 42.6692 70.6458L35.4203 70.5862C33.4695 70.5702 31.9767 68.8439 32.2424 66.9112L33.6919 56.3658C33.8108 55.5008 33.3937 54.65 32.637 54.2143C31.8794 53.778 30.9328 53.845 30.2441 54.3838L21.9888 60.8426C20.454 62.0434 18.2138 61.6246 17.2166 59.9504L13.4448 53.6184Z" fill="white"/>
<path fill-rule="evenodd" clip-rule="evenodd" d="M47.4985 46.9103L61.3562 57.1038C62.1408 57.681 63.2539 57.4387 63.7276 56.5876L67.3188 50.1365C67.7917 49.287 67.4135 48.2152 66.5122 47.8506L56.6936 43.8786C55.2717 43.3033 54.341 41.9228 54.341 40.389C54.341 38.8648 55.2601 37.491 56.6689 36.9094L66.5218 32.8422C67.4187 32.4719 67.79 31.4008 67.3146 30.5549L63.7364 24.1871C63.2605 23.3403 62.1506 23.101 61.3681 23.6766L47.4985 33.8786C47.0842 34.1833 46.8395 34.667 46.8395 35.1814V45.6075C46.8395 46.1218 47.0842 46.6055 47.4985 46.9103ZM46.5402 48.2131C45.7115 47.6036 45.2222 46.6362 45.2222 45.6075V35.1814C45.2222 34.1527 45.7115 33.1853 46.5402 32.5757L60.4098 22.3738C61.9749 21.2226 64.1945 21.7011 65.1463 23.3948L68.7246 29.7626C69.6753 31.4544 68.9327 33.5966 67.1389 34.3371L57.2861 38.4044C56.4825 38.7361 55.9583 39.5196 55.9583 40.389C55.9583 41.2638 56.4891 42.0512 57.3001 42.3793L67.1187 46.3513C68.9213 47.0806 69.6777 49.2241 68.7319 50.9232L65.1408 57.3743C64.1932 59.0764 61.9671 59.561 60.3978 58.4066L46.5402 48.2131Z" fill="#2DEBFC"/>
<path d="M42.4888 33.2879C43.3816 32.7702 43.9737 31.8575 44.0826 30.8313L45.909 13.63C46.1142 11.6979 44.5818 10.0222 42.6391 10.0543L35.3892 10.174C33.4494 10.206 31.9739 11.9267 32.2381 13.8487L33.6913 24.4207C33.8106 25.2879 33.3922 26.1409 32.6335 26.5777C31.8772 27.0129 30.933 26.9482 30.2432 26.4137L21.8745 19.9295C20.3361 18.7375 18.101 19.1641 17.1097 20.839L13.4306 27.0553C12.4454 28.7199 13.1317 30.8714 14.899 31.658L30.59 38.6417C31.5379 39.0635 32.6306 39.0051 33.5281 38.4846L42.4888 33.2879Z" fill="#2C85FC"/>
<path d="M119.067 37.642V58.6937H126.9V31.8654H115.493V37.642H119.067Z" fill="white"/>
<path d="M118.822 28.0957C119.54 28.8463 120.633 29.2216 122.102 29.2216C123.571 29.2216 124.648 28.8463 125.333 28.0957C126.051 27.3121 126.41 26.333 126.41 25.1584C126.41 23.9506 126.051 22.9714 125.333 22.221C124.648 21.4377 123.571 21.0459 122.102 21.0459C120.633 21.0459 119.54 21.4377 118.822 22.221C118.137 22.9714 117.794 23.9506 117.794 25.1584C117.794 26.333 118.137 27.3121 118.822 28.0957Z" fill="white"/>
<path d="M179.97 58.5683C180.688 59.3188 181.781 59.6941 183.25 59.6941C184.719 59.6941 185.796 59.3188 186.48 58.5683C187.199 57.7847 187.558 56.8056 187.558 55.6309C187.558 54.4232 187.199 53.4439 186.48 52.6935C185.796 51.9102 184.719 51.5184 183.25 51.5184C181.781 51.5184 180.688 51.9102 179.97 52.6935C179.285 53.4439 178.942 54.4232 178.942 55.6309C178.942 56.8056 179.285 57.7847 179.97 58.5683Z" fill="white"/>
<path d="M91.7989 58.1057C94.0178 59.1173 96.743 59.6236 99.9736 59.6236C103.009 59.6236 105.62 59.1505 107.807 58.2035C109.994 57.2574 111.674 55.9352 112.849 54.2387C114.057 52.5081 114.661 50.501 114.661 48.2165C114.661 45.9973 114.09 44.1206 112.948 42.5864C111.838 41.0199 110.288 39.796 108.296 38.9151C106.305 38.001 104.005 37.4298 101.394 37.2016L98.6523 36.9568C97.0204 36.8259 95.8454 36.3857 95.1273 35.6347C94.4092 34.8842 94.0502 34.0029 94.0502 32.9914C94.0502 32.2077 94.2467 31.4899 94.6373 30.8372C95.0295 30.1517 95.6166 29.6133 96.4001 29.2215C97.2161 28.83 98.2116 28.6341 99.3865 28.6341C100.626 28.6341 101.655 28.8623 102.471 29.3196C102.65 29.4162 102.821 29.5195 102.981 29.629L103.02 29.6562C103.08 29.6976 103.139 29.7406 103.196 29.7839C103.692 30.1628 104.086 30.6117 104.38 31.1308C104.804 31.8491 105.017 32.6484 105.017 33.5298H112.849C112.849 31.1797 112.311 29.1399 111.234 27.4102C110.157 25.6478 108.607 24.2934 106.584 23.3466C104.592 22.3675 102.193 21.8779 99.3865 21.8779C96.7099 21.8779 94.3931 22.3352 92.4345 23.2489C90.4767 24.1302 88.9427 25.4031 87.8332 27.0673C86.7552 28.7319 86.2167 30.7067 86.2167 32.9914C86.2167 36.157 87.2784 38.7026 89.3996 40.6286C91.5207 42.5541 94.3607 43.6637 97.918 43.9574L100.611 44.2022C102.797 44.3981 104.38 44.8388 105.359 45.5239C106.338 46.1766 106.828 47.0742 106.828 48.2165C106.828 48.7415 106.742 49.2339 106.57 49.6939C106.442 50.0352 106.267 50.3587 106.045 50.6644C105.522 51.3501 104.755 51.8879 103.744 52.2801C102.732 52.6715 101.475 52.8672 99.9736 52.8672C98.3094 52.8672 96.9549 52.6391 95.9109 52.1822C94.8661 51.6922 94.0833 51.0558 93.5601 50.273C93.0709 49.4893 92.8267 48.641 92.8267 47.7269H85.0425C85.0425 50.0441 85.6134 52.1006 86.7552 53.8958C87.8979 55.6579 89.5791 57.0617 91.7989 58.1057Z" fill="white"/>
<path d="M197.828 58.1057C200.047 59.1173 202.773 59.6236 206.003 59.6236C209.039 59.6236 211.649 59.1505 213.837 58.2035C216.023 57.2574 217.704 55.9352 218.879 54.2387C220.087 52.5081 220.69 50.501 220.69 48.2165C220.69 45.9973 220.12 44.1206 218.977 42.5864C217.867 41.0199 216.318 39.796 214.326 38.9151C212.335 38.001 210.034 37.4298 207.423 37.2016L204.682 36.9568C203.05 36.8259 201.875 36.3857 201.157 35.6347C200.439 34.8842 200.08 34.0029 200.08 32.9914C200.08 32.2077 200.276 31.4899 200.667 30.8372C201.059 30.1517 201.646 29.6133 202.43 29.2215C203.246 28.83 204.241 28.6341 205.416 28.6341C206.656 28.6341 207.684 28.8623 208.5 29.3196C208.68 29.4162 208.85 29.5195 209.011 29.629L209.049 29.6562C209.109 29.6976 209.168 29.7406 209.226 29.7839C209.721 30.1628 210.116 30.6117 210.41 31.1308C210.833 31.8491 211.047 32.6484 211.047 33.5298H218.879C218.879 31.1797 218.34 29.1399 217.264 27.4102C216.187 25.6478 214.636 24.2934 212.613 23.3466C210.621 22.3675 208.223 21.8779 205.416 21.8779C202.739 21.8779 200.423 22.3352 198.464 23.2489C196.506 24.1302 194.972 25.4031 193.863 27.0673C192.785 28.7319 192.246 30.7067 192.246 32.9914C192.246 36.157 193.308 38.7026 195.429 40.6286C197.55 42.5541 200.39 43.6637 203.948 43.9574L206.64 44.2022C208.826 44.3981 210.41 44.8388 211.389 45.5239C212.367 46.1766 212.857 47.0742 212.857 48.2165C212.857 48.7415 212.772 49.2339 212.599 49.6939C212.472 50.0352 212.297 50.3587 212.075 50.6644C211.551 51.3501 210.785 51.8879 209.773 52.2801C208.762 52.6715 207.505 52.8672 206.003 52.8672C204.339 52.8672 202.984 52.6391 201.94 52.1822C200.896 51.6922 200.113 51.0558 199.59 50.273C199.1 49.4893 198.856 48.641 198.856 47.7269H191.072C191.072 50.0441 191.643 52.1006 192.785 53.8958C193.927 55.6579 195.609 57.0617 197.828 58.1057Z" fill="white"/>
<path d="M144.377 59.0356C141.668 59.0356 139.481 58.7097 137.817 58.0563C136.152 57.3714 134.928 56.2457 134.145 54.6794C133.394 53.0798 133.019 50.9255 133.019 48.2164V37.593H128.956V31.8652H133.019V24.6198H140.313V31.8652H148.147V37.593H140.313V48.5105C140.313 49.7833 140.64 50.7622 141.293 51.4471C141.977 52.1005 142.941 52.4264 144.181 52.4264H148.147V59.0356H144.377Z" fill="white"/>
<path d="M266.334 59.0356C263.625 59.0356 261.439 58.7097 259.774 58.0563C258.109 57.3714 256.886 56.2457 256.102 54.6794C255.352 53.0798 254.977 50.9255 254.977 48.2164V37.593H250.913V31.8652H254.977V24.6198H262.271V31.8652H270.104V37.593H262.271V48.5105C262.271 49.7833 262.597 50.7622 263.25 51.4471C263.935 52.1005 264.898 52.4264 266.139 52.4264H270.104V59.0356H266.334Z" fill="white"/>
<path fill-rule="evenodd" clip-rule="evenodd" d="M157.577 58.4487C159.339 59.2323 161.364 59.6237 163.648 59.6237C165.899 59.6237 167.891 59.2323 169.621 58.4487C171.351 57.6651 172.787 56.5718 173.929 55.1687C175.071 53.7649 175.839 52.1662 176.229 50.3709H169.033C168.707 51.1869 168.087 51.8718 167.173 52.4266C166.259 52.9821 165.083 53.2595 163.648 53.2595C162.758 53.2595 161.964 53.1544 161.263 52.9433C160.73 52.7832 160.252 52.5624 159.829 52.2802C158.85 51.6276 158.132 50.713 157.675 49.5387C157.548 49.204 157.44 48.854 157.348 48.4893C157.256 48.12 157.18 47.7357 157.124 47.3356H176.719V44.6919C176.719 42.244 176.197 39.9921 175.153 37.9361C174.108 35.8469 172.59 34.1662 170.6 32.8933C168.641 31.5878 166.226 30.9351 163.354 30.9351C161.167 30.9351 159.208 31.3269 157.479 32.1101C155.783 32.8606 154.363 33.8886 153.22 35.1941C152.078 36.4996 151.197 37.9849 150.576 39.6495C149.989 41.281 149.695 42.9945 149.695 44.7896V45.7688C149.695 47.4988 149.989 49.1957 150.576 50.8602C151.197 52.4921 152.078 53.9768 153.22 55.3151C154.395 56.6211 155.847 57.6651 157.577 58.4487ZM157.259 42.4947C157.281 42.3911 157.303 42.2889 157.328 42.1884C157.396 41.9117 157.475 41.6464 157.564 41.393C157.614 41.2487 157.667 41.108 157.725 40.9712C158.214 39.7635 158.932 38.8498 159.878 38.2297C160.232 37.9979 160.615 37.8095 161.027 37.6644C161.719 37.4213 162.496 37.2995 163.354 37.2995C164.693 37.2995 165.801 37.6097 166.683 38.2297C167.597 38.817 168.282 39.6819 168.739 40.8242C168.777 40.9164 168.811 41.0103 168.845 41.1052C168.899 41.2566 168.95 41.4119 168.996 41.5712C169.065 41.808 169.126 42.0532 169.179 42.3067C169.218 42.4935 169.251 42.6847 169.281 42.8806H157.184C157.206 42.7497 157.231 42.6212 157.259 42.4947Z" fill="white"/>
<path fill-rule="evenodd" clip-rule="evenodd" d="M230.492 58.4487C232.254 59.2323 234.278 59.6237 236.563 59.6237C238.814 59.6237 240.806 59.2323 242.535 58.4487C244.265 57.6651 245.701 56.5718 246.843 55.1687C247.986 53.7649 248.753 52.1662 249.144 50.3709H241.947C241.622 51.1869 241.001 51.8718 240.087 52.4266C239.174 52.9821 237.998 53.2595 236.563 53.2595C235.673 53.2595 234.878 53.1544 234.178 52.9433C233.645 52.7832 233.167 52.5624 232.744 52.2802C231.765 51.6276 231.047 50.713 230.59 49.5387C230.463 49.204 230.354 48.854 230.263 48.4893C230.17 48.12 230.095 47.7357 230.038 47.3356H249.634V44.6919C249.634 42.244 249.111 39.9921 248.067 37.9361C247.023 35.8469 245.505 34.1662 243.515 32.8933C241.556 31.5878 239.141 30.9351 236.268 30.9351C234.082 30.9351 232.123 31.3269 230.393 32.1101C228.697 32.8606 227.277 33.8886 226.135 35.1941C224.993 36.4996 224.112 37.9849 223.491 39.6495C222.903 41.281 222.61 42.9945 222.61 44.7896V45.7688C222.61 47.4988 222.903 49.1957 223.491 50.8602C224.112 52.4921 224.993 53.9768 226.135 55.3151C227.31 56.6211 228.761 57.6651 230.492 58.4487ZM230.173 42.4947C230.195 42.3911 230.218 42.2889 230.243 42.1884C230.311 41.9117 230.389 41.6464 230.478 41.393C230.528 41.2487 230.582 41.108 230.639 40.9712C231.128 39.7635 231.846 38.8498 232.793 38.2297C233.147 37.9979 233.53 37.8095 233.942 37.6644C234.634 37.4213 235.41 37.2995 236.268 37.2995C237.607 37.2995 238.716 37.6097 239.597 38.2297C240.511 38.817 241.197 39.6819 241.654 40.8242C241.691 40.9164 241.726 41.0103 241.76 41.1052C241.814 41.2566 241.864 41.4119 241.911 41.5712C241.98 41.808 242.04 42.0532 242.094 42.3067C242.133 42.4935 242.166 42.6847 242.196 42.8806H230.098C230.121 42.7497 230.146 42.6212 230.173 42.4947Z" fill="white"/>
</svg>
