<svg width="83" height="81" viewBox="0 0 83 81" fill="none" xmlns="http://www.w3.org/2000/svg">
<path d="M13.4047 53.6184C12.4129 51.9534 13.0979 49.7959 14.8684 49.0079L30.55 42.0282C31.4979 41.6063 32.5906 41.6647 33.4881 42.1852L42.4489 47.3819C43.3416 47.8996 43.9337 48.8123 44.0427 49.8385L45.8723 67.0698C46.0763 68.9912 44.5613 70.6617 42.6291 70.6458L35.3803 70.5862C33.4295 70.5702 31.9367 68.8439 32.2024 66.9112L33.6519 56.3658C33.7708 55.5008 33.3537 54.65 32.597 54.2143C31.8393 53.778 30.8927 53.845 30.2041 54.3838L21.9487 60.8426C20.414 62.0434 18.1738 61.6246 17.1766 59.9504L13.4047 53.6184Z" fill="white"/>
<path fill-rule="evenodd" clip-rule="evenodd" d="M47.4586 46.9103L61.3163 57.1038C62.1009 57.681 63.2139 57.4387 63.6877 56.5876L67.2788 50.1365C67.7517 49.287 67.3736 48.2152 66.4722 47.8506L56.6537 43.8786C55.2317 43.3033 54.3011 41.9228 54.3011 40.389C54.3011 38.8648 55.2202 37.491 56.629 36.9094L66.4819 32.8422C67.3788 32.4719 67.7501 31.4008 67.2747 30.5549L63.6965 24.1871C63.2206 23.3403 62.1107 23.101 61.3282 23.6766L47.4586 33.8786C47.0442 34.1833 46.7996 34.667 46.7996 35.1814V45.6075C46.7996 46.1218 47.0442 46.6055 47.4586 46.9103ZM46.5002 48.2131C45.6716 47.6036 45.1823 46.6362 45.1823 45.6075V35.1814C45.1823 34.1527 45.6716 33.1853 46.5003 32.5757L60.3699 22.3738C61.9349 21.2226 64.1546 21.7011 65.1064 23.3948L68.6847 29.7626C69.6354 31.4544 68.8928 33.5966 67.099 34.3371L57.2462 38.4044C56.4426 38.7361 55.9184 39.5196 55.9184 40.389C55.9184 41.2638 56.4492 42.0512 57.2602 42.3793L67.0788 46.3513C68.8814 47.0806 69.6378 49.2241 68.692 50.9232L65.1008 57.3743C64.1533 59.0764 61.9272 59.561 60.3579 58.4066L46.5002 48.2131Z" fill="#2DEBFC"/>
<path d="M42.4488 33.2879C43.3415 32.7702 43.9336 31.8575 44.0426 30.8313L45.869 13.63C46.0742 11.6979 44.5417 10.0222 42.599 10.0543L35.3492 10.174C33.4094 10.206 31.9339 11.9267 32.1981 13.8487L33.6513 24.4207C33.7705 25.2879 33.3522 26.1409 32.5935 26.5777C31.8372 27.0129 30.8929 26.9482 30.2032 26.4137L21.8345 19.9295C20.2961 18.7375 18.0609 19.1641 17.0697 20.839L13.3905 27.0553C12.4053 28.7199 13.0917 30.8714 14.8589 31.658L30.55 38.6417C31.4978 39.0635 32.5905 39.0051 33.488 38.4846L42.4488 33.2879Z" fill="#2C85FC"/>
</svg>
